<svg width="29" height="30" viewBox="0 0 29 30" fill="none" xmlns="http://www.w3.org/2000/svg">
<path d="M20.5415 2.5H8.45817C5.12145 2.5 2.4165 5.29822 2.4165 8.75V21.25C2.4165 24.7018 5.12145 27.5 8.45817 27.5H20.5415C23.8782 27.5 26.5832 24.7018 26.5832 21.25V8.75C26.5832 5.29822 23.8782 2.5 20.5415 2.5Z" stroke="black" stroke-width="2" stroke-linecap="round" stroke-linejoin="round"/>
<path d="M19.3336 14.2129C19.4828 15.2532 19.311 16.3156 18.8428 17.2491C18.3745 18.1826 17.6337 18.9396 16.7256 19.4125C15.8175 19.8853 14.7884 20.0499 13.7847 19.8828C12.781 19.7157 11.8538 19.2255 11.1349 18.4818C10.416 17.7382 9.94214 16.779 9.78063 15.7406C9.61912 14.7023 9.77821 13.6377 10.2353 12.6983C10.6923 11.7589 11.4241 10.9926 12.3265 10.5082C13.2289 10.0238 14.2559 9.84611 15.2615 10.0004C16.2873 10.1577 17.237 10.6522 17.9703 11.4108C18.7035 12.1693 19.1815 13.1517 19.3336 14.2129Z" stroke="black" stroke-width="2" stroke-linecap="round" stroke-linejoin="round"/>
<path d="M21.146 8.125H21.1593" stroke="black" stroke-width="2" stroke-linecap="round" stroke-linejoin="round"/>
</svg>
